<?xml version="1.0" encoding="UTF-8"?>
<svg version="1.1" xmlns="http://www.w3.org/2000/svg" width="148" height="148">
<path d="M0 0 C48.84 0 97.68 0 148 0 C148 48.84 148 97.68 148 148 C99.16 148 50.32 148 0 148 C0 99.16 0 50.32 0 0 Z " fill="#040404" transform="translate(0,0)"/>
<path d="M0 0 C0 48.84 0 97.68 0 148 C-13.53 148 -27.06 148 -41 148 C-41.66 146.35 -42.32 144.7 -43 143 C-45.84374353 142.1506293 -45.84374353 142.1506293 -49 142 C-50.66804677 141.67364302 -52.33524314 141.34274406 -54 141 C-54 140.34 -54 139.68 -54 139 C-56.97 139.99 -56.97 139.99 -60 141 C-61.37562854 139.71034824 -62.70766393 138.37310707 -64 137 C-64 136.34 -64 135.68 -64 135 C-65.32 134.34 -66.64 133.68 -68 133 C-68 132.34 -68 131.68 -68 131 C-68.66 131 -69.32 131 -70 131 C-70.226875 130.360625 -70.45375 129.72125 -70.6875 129.0625 C-71.85250896 126.72806339 -71.85250896 126.72806339 -74.625 126.25 C-75.40875 126.1675 -76.1925 126.085 -77 126 C-77 125.34 -77 124.68 -77 124 C-76.401875 123.443125 -75.80375 122.88625 -75.1875 122.3125 C-70.28380152 117.12859017 -69.20893197 110.23870521 -67.6484375 103.4765625 C-67 101 -67 101 -66 100 C-65.87978178 98.63237816 -65.82056186 97.2592528 -65.7890625 95.88671875 C-65.74652344 94.6327832 -65.74652344 94.6327832 -65.703125 93.35351562 C-65.65139102 91.58809354 -65.60701804 89.8224391 -65.5703125 88.05664062 C-65.33408431 81.64402958 -65.33408431 81.64402958 -63.6484375 78.39453125 C-62 77 -62 77 -59 77 C-59.90630494 73.85108981 -60.82697715 70.70654657 -61.75 67.5625 C-62.00265625 66.68400391 -62.2553125 65.80550781 -62.515625 64.90039062 C-64.04617292 59.71565956 -65.83221195 54.81591005 -68.1171875 49.91479492 C-70.05855453 45.70402566 -71.71770783 41.66510088 -71 37 C-68.89178292 33.87402295 -67.14927285 32.09951523 -64 30 C-63.53114148 27.86744896 -63.53114148 27.86744896 -63.5 25.5 C-63.40625 23.09375 -63.40625 23.09375 -63 21 C-60 19 -60 19 -56.8125 18.15625 C-52.4196851 16.82400286 -48.91410034 14.84696055 -45 12.5 C-37.47711312 7.98915021 -30.84203332 5.87565156 -22.0390625 5.34375 C-21.02972656 5.17359375 -21.02972656 5.17359375 -20 5 C-19.67 4.34 -19.34 3.68 -19 3 C-19.66 3 -20.32 3 -21 3 C-21 2.34 -21 1.68 -21 1 C-14.35169194 -1.21610269 -7.00793201 0 0 0 Z " fill="#FDFDFD" transform="translate(148,0)"/>
<path d="M0 0 C37.62 0 75.24 0 114 0 C112.59322887 2.81354225 111.0681821 2.86614721 108.125 3.875 C106.63806641 4.39707031 106.63806641 4.39707031 105.12109375 4.9296875 C103.09335826 5.62505612 101.0647575 6.31790852 99.03515625 7.0078125 C97.62556641 7.49894531 97.62556641 7.49894531 96.1875 8 C95.33542969 8.28875 94.48335938 8.5775 93.60546875 8.875 C90.85738972 9.95502926 90.85738972 9.95502926 88.1796875 11.99609375 C84.4597245 14.34049303 81.1918173 15.17668043 76.9375 16.0625 C72.12098352 17.08662467 68.17280893 18.29724486 64 21 C63.34 21 62.68 21 62 21 C62 21.66 62 22.32 62 23 C58.35206816 24.27253436 54.8063457 25.32829194 51 26 C50.82984375 25.38511719 50.6596875 24.77023438 50.484375 24.13671875 C50.24203125 23.32847656 49.9996875 22.52023438 49.75 21.6875 C49.51796875 20.88699219 49.2859375 20.08648438 49.046875 19.26171875 C47.76453668 16.4912938 46.67661081 15.45437083 44 14 C41.50423527 13.74053364 41.50423527 13.74053364 38.9375 14.125 C38.08027344 14.21007813 37.22304688 14.29515625 36.33984375 14.3828125 C33.68989607 15.08179703 32.80890679 16.01395991 31 18 C30.34 18 29.68 18 29 18 C29.09539063 18.98742187 29.19078125 19.97484375 29.2890625 20.9921875 C29.39992188 22.27351563 29.51078125 23.55484375 29.625 24.875 C29.79902344 26.78925781 29.79902344 26.78925781 29.9765625 28.7421875 C29.98429687 29.81726563 29.99203125 30.89234375 30 32 C29.34 32.66 28.68 33.32 28 34 C27.01 34 26.02 34 25 34 C25 32.68 25 31.36 25 30 C24.01 30.66 23.02 31.32 22 32 C22.33 30.68 22.66 29.36 23 28 C22.34 28 21.68 28 21 28 C20.01 31.465 20.01 31.465 19 35 C18.34 34.34 17.68 33.68 17 33 C16.94615479 35.29141286 16.90727913 37.58318188 16.875 39.875 C16.85179688 41.15117188 16.82859375 42.42734375 16.8046875 43.7421875 C16.64358476 47.08593338 16.64358476 47.08593338 19 49 C19.39258521 51.30025854 19.6901506 53.61712702 19.9375 55.9375 C20.69649985 62.49833272 22.02988025 68.68248267 24 75 C29.27181501 73.0737599 31.55679173 71.54995379 35 67 C35.99 67 36.98 67 38 67 C38.66 65.68 39.32 64.36 40 63 C46.13602988 64.41600689 50.26698362 68.0663375 55 72 C54.67 73.98 54.34 75.96 54 78 C53.34 78 52.68 78 52 78 C51.855625 78.598125 51.71125 79.19625 51.5625 79.8125 C51.1127561 81.56150404 50.57107659 83.28677023 50 85 C49.34 85 48.68 85 48 85 C47.79375 85.78375 47.5875 86.5675 47.375 87.375 C46.1564796 90.58746288 44.80996311 93.04597356 43 95.9375 C40.54017144 99.92432358 39.14178796 103.43284816 38 108 C37.67 108.66644531 37.34 109.33289063 37 110.01953125 C31.91673933 120.38020491 32.57289622 134.14750469 36 145 C36.66 145.99 37.32 146.98 38 148 C25.46 148 12.92 148 0 148 C0 99.16 0 50.32 0 0 Z " fill="#FCFCFC" transform="translate(0,0)"/>
<path d="M0 0 C0.33 0 0.66 0 1 0 C0.95359375 0.72445312 0.9071875 1.44890625 0.859375 2.1953125 C0.62783762 8.39720652 0.64707226 12.21177949 5 17 C9.35321796 21.2050233 13.93704238 24.70907754 19 28 C19 28.33 19 28.66 19 29 C16.54101345 29.08076963 14.08466258 29.14037143 11.625 29.1875 C10.92632812 29.21263672 10.22765625 29.23777344 9.5078125 29.26367188 C7.4765625 29.29296875 7.4765625 29.29296875 4 29 C2 26 2 26 2 23 C0.02 22.67 -1.96 22.34 -4 22 C-5.1073876 16.73990892 -5.69869353 11.35052153 -5 6 C-3.0625 3.5 -3.0625 3.5 -1 2 C-0.67 1.34 -0.34 0.68 0 0 Z " fill="#F3F3F3" transform="translate(54,119)"/>
<path d="M0 0 C0.33 1.32 0.66 2.64 1 4 C1.66 4 2.32 4 3 4 C1.89824464 6.47894956 0.733707 8.3245446 -1 10.4375 C-2.95455936 12.94177918 -3.91167362 15.04597125 -5 18 C-5.66 18.99 -6.32 19.98 -7 21 C-7.66 21 -8.32 21 -9 21 C-10.42497486 16.54695356 -11.53743672 12.72944312 -11 8 C-9.5625 6.3125 -9.5625 6.3125 -8 5 C-7.67 4.01 -7.34 3.02 -7 2 C-4.56723614 0.81480735 -2.71982714 0 0 0 Z " fill="#EEEEEE" transform="translate(35,37)"/>
<path d="M0 0 C1.85329634 2.77994451 2.68563605 4.78256551 3.625 7.9375 C3.88539062 8.79214844 4.14578125 9.64679688 4.4140625 10.52734375 C5 13 5 13 5 17 C4.01 17.33 3.02 17.66 2 18 C1.34 18.99 0.68 19.98 0 21 C-3.3 20.67 -6.6 20.34 -10 20 C-6 17 -6 17 -2 17 C-0.75104773 12.94090513 -0.45023185 8.92418853 -1.625 4.8125 C-1.74875 4.214375 -1.8725 3.61625 -2 3 C-1.34 2.01 -0.68 1.02 0 0 Z " fill="#131313" transform="translate(84,60)"/>
<path d="M0 0 C1.9451 2.91765 2.45276317 4.62537285 3 8 C1.68 7.67 0.36 7.34 -1 7 C-1.625 5.1875 -1.625 5.1875 -2 3 C-1.34 2.01 -0.68 1.02 0 0 Z " fill="#1E1E1E" transform="translate(84,60)"/>
<path d="M0 0 C1.65 0 3.3 0 5 0 C4.67 1.65 4.34 3.3 4 5 C2.68 5.33 1.36 5.66 0 6 C0 4.02 0 2.04 0 0 Z " fill="#D9D9D9" transform="translate(25,28)"/>
<path d="M0 0 C0.33 0 0.66 0 1 0 C1 2.64 1 5.28 1 8 C0.34 7.34 -0.32 6.68 -1 6 C-2.32 7.32 -3.64 8.64 -5 10 C-5 6 -5 6 -3.0625 3.875 C-2.0415625 2.946875 -2.0415625 2.946875 -1 2 C-0.67 1.34 -0.34 0.68 0 0 Z " fill="#C1C1C1" transform="translate(54,119)"/>
</svg>
